<svg width="103" height="579" viewBox="0 0 103 579" fill="none" xmlns="http://www.w3.org/2000/svg">
<path d="M116.546 3.15695L150.602 42.577C153.099 45.4671 157.581 45.4671 160.078 42.577L194.988 2.16764C197.485 -0.722445 201.968 -0.722447 204.464 2.16764L239.375 42.577C241.871 45.4671 246.354 45.4671 248.851 42.577L283.761 2.16756C286.258 -0.722493 290.741 -0.722495 293.238 2.16756L328.148 42.577C330.645 45.4671 335.128 45.4671 337.624 42.5771L372.535 2.16752C375.032 -0.722514 379.515 -0.722506 382.011 2.16754L416.922 42.577C419.419 45.4671 423.901 45.4671 426.398 42.577L460.454 3.15702C463.222 -0.0471549 468.309 0.363973 470.526 3.97105L509.65 67.629C510.165 68.4665 510.87 69.1711 511.708 69.6855L574.016 107.93C577.995 110.372 577.995 116.149 574.016 118.591L519.117 152.288C515.139 154.729 515.139 160.507 519.118 162.948L574.016 196.645C577.994 199.086 577.995 204.864 574.016 207.305L519.117 241.002C515.139 243.444 515.139 249.221 519.118 251.663L574.016 285.359C577.995 287.801 577.995 293.578 574.017 296.02L519.117 329.717C515.139 332.159 515.139 337.936 519.117 340.378L574.017 374.075C577.995 376.516 577.995 382.294 574.017 384.735L519.117 418.432C515.139 420.874 515.139 426.651 519.117 429.093L574.016 462.789C577.994 465.231 577.994 471.008 574.016 473.45L511.708 511.694C510.87 512.209 510.165 512.913 509.65 513.751L471.38 576.018C468.937 579.994 463.156 579.994 460.713 576.018L426.994 521.156C424.551 517.18 418.77 517.18 416.326 521.156L382.607 576.018C380.164 579.994 374.383 579.994 371.939 576.018L338.22 521.156C335.777 517.18 329.996 517.18 327.552 521.156L293.833 576.018C291.39 579.994 285.609 579.994 283.166 576.018L249.447 521.156C247.004 517.18 241.223 517.18 238.779 521.156L205.06 576.018C202.617 579.994 196.836 579.994 194.393 576.018L160.674 521.156C158.231 517.18 152.449 517.18 150.006 521.156L116.287 576.018C113.844 579.994 108.063 579.994 105.619 576.018L67.3494 513.751C66.8347 512.913 66.1297 512.209 65.2917 511.694L2.98361 473.45C-0.994441 471.008 -0.994425 465.231 2.98363 462.789L57.8825 429.092C61.8606 426.651 61.8606 420.873 57.8825 418.432L2.98358 384.735C-0.99446 382.293 -0.994472 376.516 2.98357 374.074L57.8824 340.378C61.8604 337.936 61.8604 332.159 57.8824 329.717L2.98349 296.02C-0.994525 293.578 -0.994485 287.801 2.98354 285.359L57.8823 251.662C61.8603 249.221 61.8603 243.443 57.8823 241.002L2.98359 207.305C-0.994452 204.863 -0.994437 199.086 2.98361 196.644L57.8823 162.948C61.8603 160.506 61.8603 154.729 57.8823 152.287L2.98361 118.59C-0.99444 116.149 -0.994421 110.371 2.98363 107.93L65.2919 69.6854C66.13 69.171 66.835 68.4664 67.3497 67.6289L106.474 3.97098C108.691 0.363929 113.778 -0.0472024 116.546 3.15695Z" fill="#F4ADB3" fill-opacity="0.2"/>
</svg>
