<svg width="908" height="389" viewBox="0 0 908 389" fill="none" xmlns="http://www.w3.org/2000/svg">
<path opacity="0.4" d="M726.853 268.068C723.15 260.679 725.618 251.589 732.774 247.455L842.23 184.224C851.792 178.701 855.068 166.474 849.549 156.91L844.812 148.701C839.29 139.13 827.053 135.852 817.485 141.379L702.724 207.674C696.593 211.215 688.82 209.723 684.173 204.382C679.065 198.509 679.144 189.645 684.646 184.14L778.382 90.351C786.187 82.5415 786.187 69.8844 778.382 62.0748L771.687 55.3759C763.876 47.5601 751.206 47.5601 743.395 55.3759L646.243 152.583C641.392 157.437 633.729 157.945 628.099 154.022C622.055 149.811 620.024 141.685 623.706 135.305L692.425 16.2131C697.943 6.64918 694.667 -5.57746 685.106 -11.1007L676.911 -15.8348C667.343 -21.3619 655.106 -18.083 649.584 -8.51246L579.203 113.46C575.835 119.297 568.671 121.68 562.372 119.284C555.783 116.777 551.954 109.747 553.778 102.937L590.218 -33.1355C593.074 -43.8031 586.744 -54.7672 576.077 -57.6269L566.941 -60.0764C556.27 -62.9373 545.301 -56.6041 542.443 -45.9322L505.539 91.8714C503.801 98.3618 497.483 102.463 490.812 101.66C484.026 100.844 478.728 95.1815 478.728 88.3461V-54.3315C478.728 -65.3772 469.774 -74.3315 458.728 -74.3315H449.271C438.226 -74.3315 429.271 -65.3772 429.271 -54.3315V88.3462C429.271 95.1815 423.974 100.844 417.188 101.66C410.517 102.463 404.199 98.3618 402.461 91.8714L365.557 -45.9322C362.699 -56.6041 351.73 -62.9373 341.059 -60.0764L331.923 -57.6269C321.256 -54.7672 314.926 -43.8031 317.782 -33.1355L354.222 102.937C356.046 109.747 352.217 116.777 345.628 119.284C339.329 121.68 332.165 119.297 328.797 113.46L258.416 -8.51248C252.894 -18.083 240.657 -21.3619 231.089 -15.8348L222.894 -11.1007C213.333 -5.57747 210.057 6.64918 215.575 16.2131L284.294 135.305C287.976 141.685 285.945 149.811 279.901 154.022C274.27 157.945 266.608 157.437 261.757 152.583L164.605 55.3759C156.794 47.5601 144.124 47.5601 136.313 55.3759L129.618 62.0748C121.813 69.8844 121.813 82.5415 129.618 90.3511L223.354 184.14C228.856 189.645 228.935 198.509 223.827 204.382C219.18 209.723 211.407 211.215 205.276 207.674L90.5152 141.379C80.9474 135.852 68.7104 139.13 63.188 148.701L58.451 156.91C52.9324 166.474 56.2085 178.701 65.7697 184.224L175.226 247.455C182.382 251.589 184.85 260.679 181.147 268.068C177.834 274.682 170.382 278.272 163.237 276.357L41.1931 243.637C30.5221 240.776 19.5526 247.109 16.6947 257.781L14.2416 266.941C11.3849 277.609 17.715 288.573 28.3817 291.433L143.764 322.367C152.226 324.635 157.229 333.263 155.435 341.839C153.839 349.47 147.228 355.183 139.431 355.183H20C8.95429 355.183 0 364.138 0 375.183V384.668C0 395.714 8.9543 404.668 20 404.668H888C899.046 404.668 908 395.714 908 384.668V375.183C908 364.138 899.046 355.183 888 355.183H768.569C760.772 355.183 754.161 349.47 752.565 341.839C750.771 333.263 755.774 324.635 764.236 322.367L879.619 291.433C890.285 288.573 896.615 277.609 893.759 266.941L891.306 257.781C888.448 247.109 877.478 240.776 866.807 243.637L744.764 276.357C737.618 278.272 730.166 274.682 726.853 268.068Z" fill="url(#paint0_linear_0_2264)" fill-opacity="0.6"/>
<defs>
<linearGradient id="paint0_linear_0_2264" x1="24.2133" y1="-50.3816" x2="997.755" y2="284.534" gradientUnits="userSpaceOnUse">
<stop stop-color="#FFE0CF"/>
<stop offset="0.5625" stop-color="#E4ABA8"/>
<stop offset="1" stop-color="#FFADED"/>
</linearGradient>
</defs>
</svg>
