<svg width="264" height="543" viewBox="0 0 264 543" fill="none" xmlns="http://www.w3.org/2000/svg">
<path opacity="0.1" d="M183.527 283.775C165.459 251.998 126.696 239.363 93.8158 253.181C122.504 231.992 131.469 192.219 113.4 160.442C95.3316 128.665 56.5685 116.031 23.6886 129.849C52.3768 108.659 61.3414 68.8868 43.2729 37.1098C23.7685 2.80752 -19.8505 -9.18855 -54.1528 10.3159C-54.3994 10.4561 -54.6448 10.5975 -54.889 10.7402L-54.8915 10.7359C-191.366 88.3356 -239.093 261.877 -161.493 398.351C-83.8935 534.825 89.6478 582.552 226.122 504.953L226.12 504.948C226.367 504.811 226.614 504.673 226.861 504.533C261.163 485.028 273.159 441.409 253.655 407.107C235.586 375.33 196.823 362.696 163.943 376.514C192.631 355.324 201.596 315.552 183.527 283.775Z" fill="#E597E5"/>
</svg>
