<svg width="222" height="478" viewBox="0 0 222 478" fill="none" xmlns="http://www.w3.org/2000/svg">
<path fill-rule="evenodd" clip-rule="evenodd" d="M102.784 369.901C111.624 363.568 113.398 351.776 106.723 343.722L64.7673 293.101C-2.50634 211.934 15.3748 93.0958 104.465 29.2697L129.612 11.2541C154.179 -6.34666 188.804 -2.2297 206.949 20.4496C225.093 43.1289 219.886 75.7823 195.319 93.3831L170.172 111.399C130.797 139.608 122.894 192.13 152.627 228.003L194.582 278.624C238.799 331.972 227.046 410.079 168.491 452.03C109.936 493.979 27.3047 483.493 -14.9603 428.748L-55.066 376.801C-83.4877 339.987 -139.054 332.935 -178.43 361.145L-202.809 378.611C-227.377 396.211 -262.002 392.094 -280.147 369.415C-298.291 346.736 -293.084 314.082 -268.516 296.482L-244.137 279.016C-155.047 215.19 -29.3235 231.145 34.9825 314.438L75.0881 366.386C81.4689 374.651 93.9437 376.234 102.784 369.901Z" fill="#FEF2E5" fill-opacity="0.5"/>
</svg>
