<svg width="52" height="63" viewBox="0 0 52 63" fill="none" xmlns="http://www.w3.org/2000/svg">
<path d="M12 32.1795L31.3333 7.39258L27.1905 23.9172H41L18.2143 49.3926L22.3571 32.1795H12Z" fill="#FFC061"/>
<path fill-rule="evenodd" clip-rule="evenodd" d="M25.9407 3.5233C20.1954 7.29344 8.16682 24.0896 4.64113 33.1442C2.51621 38.6113 2.87833 38.8709 11.6551 38.3959L17.9159 38.067C8.82015 59.0687 9.7381 56.8343 9.6613 57.0428C7.6644 61.5628 11.3359 64.0204 14.5213 60.3014C14.5506 60.2648 42.4289 33.1785 47.0187 24.7054C47.5453 23.7473 47.2675 22.7453 45.7718 21.8785C43.3144 20.4522 40.195 20.2656 28.9351 20.5833C27.176 20.6454 26.3643 20.5357 26.4667 20.2577C27.0665 18.1586 29.2902 9.38193 30.4386 5.92245C31.7882 1.87421 31.4044 -0.0822913 25.9407 3.5233ZM24.4885 11.1481C24.269 11.8722 21.5881 21.0328 21.4637 21.4131C20.7981 23.2197 21.4563 24.0462 23.6213 24.039C30.8146 24.0063 33.6743 23.9553 36.5524 23.7689C41.3175 23.4728 41.3285 23.2716 36.8851 28.863C32.1527 34.853 19.9159 48.8734 19.5867 48.6101C19.2942 48.3761 22.7431 39.53 23.7562 37.8514C25.5848 34.8162 24.8826 34.4943 18.0696 35.2511C15.0086 35.5911 13.0924 35.7373 11.6332 35.7994C10.2728 35.8505 9.28911 34.4937 9.81211 33.2028C11.7798 28.4196 15.5651 22.3016 22.009 13.4226C24.964 9.42932 25.0224 9.35619 24.4885 11.1481Z" fill="black"/>
</svg>
