<svg width="309" height="659" viewBox="0 0 309 659" fill="none" xmlns="http://www.w3.org/2000/svg">
<path opacity="0.5" d="M21.2736 43.8155L0.413154 51.8974C1.60022 56.27 4.26621 61.0356 9.85429 64.0506C15.6018 67.1516 22.4244 68.4295 29.185 68.8203C36.0688 69.2183 43.7119 68.7372 51.6547 67.7104C67.5344 65.6577 85.735 61.2695 103.529 56.213C116.979 52.3911 130.393 48.1296 142.654 44.0859C131.505 49.6037 118.915 55.6699 104.842 62.2841C101.458 63.8741 97.538 65.6312 93.3067 67.5276L93.3053 67.5282C81.1368 72.9821 66.3972 79.5883 54.4674 86.6877C46.4016 91.4876 38.476 97.1428 33.1077 103.716C27.5569 110.513 23.6317 119.873 27.6532 130.253C29.2347 134.335 32.1848 137.03 34.7808 138.74C37.3903 140.459 40.304 141.629 43.0158 142.469C48.4337 144.146 54.8065 145.03 60.7248 145.527C82.0871 147.319 103.319 145.494 124.492 142.506C138.6 140.515 152.661 138.318 166.667 135.935C160.154 138.512 153.655 141.123 147.185 143.784C116.57 156.377 86.3294 172.717 64.4564 198.131C58.8833 204.606 53.3438 212.92 51.2914 223.029C50.1175 228.81 51.1443 234.951 55.7957 239.513C59.7443 243.386 64.7879 244.532 68.0455 244.945C86.9155 247.336 107.947 241.04 126.7 235.426C131.014 234.135 135.207 232.88 139.226 231.775L139.23 231.774L139.233 231.773C146.195 229.858 153 227.987 159.594 226.343C171.71 223.322 183.847 220.457 196.026 217.811C183.852 222.769 171.814 228.592 160.494 235.912C138.062 250.416 110.261 270.198 102.512 297.636C101.054 302.799 100.027 311.533 106.503 318.75C122.948 337.076 170.516 329.697 198.083 325.421C203.016 324.655 207.308 323.99 210.667 323.588C192.137 334.868 175.297 347.977 159.1 362.339L159.099 362.34C156.708 364.46 152.655 368.053 149.449 372.078C145.406 377.152 140.982 384.905 142.246 394.562C143.233 402.107 148.368 406.511 153.253 408.626C157.686 410.546 162.592 410.987 166.379 411.045C170.368 411.106 174.277 410.744 177.257 410.391C181.559 409.88 185.859 409.376 190.156 408.873L190.165 408.872C216.761 405.757 243.277 402.651 269.715 397.906C260.203 402 250.769 406.447 241.626 411.477C217.278 424.871 191.331 444.084 175.384 467.649C173.907 469.832 172.204 472.785 171.275 476.181C170.323 479.664 169.965 484.54 172.637 489.319C176.044 495.413 182.14 497.437 185.328 498.198C208.812 503.801 234.962 497.323 258.962 491.378L258.963 491.377C264.735 489.947 270.382 488.548 275.839 487.356C250.367 499.528 224.084 514.164 202.773 533.169C198.803 536.709 191.996 543.726 192.265 553.408C192.503 561.984 199.007 566.305 203.006 568.07C207.162 569.905 211.946 570.655 215.783 571.013C223.03 571.69 230.467 571.234 232.459 571.112C257.918 569.518 279.825 564.029 303.564 558.081L303.565 558.081C319.643 554.052 336.561 549.813 355.992 546.431C364.004 545.037 351.601 553.285 332.096 566.256C294.486 591.267 230.471 633.838 235.483 658.704L256.495 650.564C270.359 639.505 285.247 629.596 300.074 619.727C305.532 616.094 310.982 612.466 316.37 608.789C362.791 577.105 420.348 537.819 427.371 529.896C438.363 517.496 429.721 503.608 421.569 503.778C374.03 504.77 217.271 549.321 217.271 549.321L222.054 545.59C222.054 545.59 298.478 499.823 351.421 479.364C360.561 475.832 373.152 470.945 373.152 470.945C373.221 470.918 373.314 470.883 373.427 470.84L373.696 470.739C378.945 468.763 411.968 456.333 406.552 445.298C397.724 427.308 303.522 458.538 272.06 466.256C247.044 472.393 220.242 478.968 195.092 477.547C210.799 458.652 230.603 442.3 252.107 430.471C271.129 420.007 291.372 412.3 312.352 404.313C316.775 402.63 321.231 400.933 325.715 399.196C330.899 397.187 336.321 395.196 341.853 393.165C344.4 392.229 347.752 391.337 351.468 390.348C363.098 387.251 378.295 383.205 383.545 373.92C384.447 372.325 385.695 369.078 384.426 365.19C380.798 354.079 365.267 357.658 355.387 359.934L355.385 359.935C353.492 360.371 351.806 360.759 350.452 360.987C317.821 366.48 181.909 404.829 166.787 389.342C159.99 382.381 210.543 348.841 243.692 330.738C272.261 315.137 321.421 300.624 321.421 300.624C322.914 300.167 324.717 299.737 326.678 299.269C334.577 297.384 345.034 294.888 348.042 287.619C348.716 285.99 349.254 283.535 348.529 280.726C347.803 277.91 345.661 276.135 333.345 276.06C310.077 275.918 135.342 308.513 135.342 308.513C135.342 308.513 127.693 309.452 125.507 306.179C123.403 303.031 126.738 296.553 126.738 296.553C136.97 278.55 154.669 265.515 172.31 254.108C192.318 241.171 215.333 233.25 239.316 225.453C253.118 220.967 266.573 217.577 280.42 214.088C282.157 213.651 283.895 213.218 285.632 212.785C296.459 210.088 307.284 207.392 317.77 203.572C324.176 201.238 325.017 195.432 323.813 190.463C322.027 183.092 315.062 181.409 308.289 181.155C287.459 180.373 267.142 183.262 248.303 186.079C216.408 190.846 185.179 197.607 154.371 205.288C128.296 211.789 102.535 220.89 75.6748 223.369C100.135 194.949 117.551 179.428 155.44 163.844C178.047 154.545 200.749 144 224.466 137.756C242.391 133.037 276.791 123.981 274.809 107.238C274.104 101.285 269.402 98.9177 268.091 98.3633C249.702 90.582 196.811 103.468 158.128 112.892C142.563 116.684 129.298 119.916 121.507 121.015C101.958 123.773 82.3515 125.553 62.623 123.898C57.2888 123.45 52.7366 122.728 49.5405 121.739C49.5405 121.739 58.5731 110.903 65.5917 105.313C83.11 91.3614 114.439 81.3304 135.438 73.3094C167.85 60.9287 217.827 41.8389 226.501 16.4799C227.344 14.0162 227.635 10.2955 225.408 6.74044C223.479 3.66256 220.695 2.42713 219.357 1.95546C205.707 -2.85457 184.631 5.56085 168.605 11.96C164.27 13.6913 160.304 15.2749 156.954 16.4092C153.881 17.4501 150.68 18.534 147.389 19.6414C132.348 24.702 114.955 30.4149 97.6182 35.3414C80.2187 40.2857 63.2203 44.3372 48.9215 46.1856C41.7752 47.1094 35.5843 47.4443 30.5174 47.1514C30.1464 47.1299 29.7128 47.1176 29.2395 47.1042C26.1427 47.0165 21.3471 46.8806 21.2736 43.8155Z" fill="#CEEADD"/>
</svg>
