<svg width="23" height="21" viewBox="0 0 23 21" fill="none" xmlns="http://www.w3.org/2000/svg">
<path fill-rule="evenodd" clip-rule="evenodd" d="M1.87453 2.18242C4.29081 -0.286085 8.21201 -0.285408 10.6275 2.18445L10.6393 2.19702L11.0025 2.59501L11.3824 2.18432C13.7985 -0.286221 17.7214 -0.286086 20.1375 2.18445C20.1467 2.19393 20.1556 2.20378 20.1641 2.21396L20.2013 2.25857C22.6075 4.72395 22.6029 8.70394 20.1876 11.1636C20.1873 11.1639 20.187 11.1642 20.1867 11.1644L19.4583 11.9128L19.4572 11.9139L11.3572 20.1839C11.2632 20.2799 11.1344 20.334 11 20.334C10.8656 20.334 10.7368 20.2799 10.6428 20.1839L2.5428 11.9139L2.54171 11.9128L1.81254 11.1636C1.81246 11.1636 1.81262 11.1637 1.81254 11.1636C-0.597263 8.6993 -0.597424 4.70869 1.81254 2.24445L1.81643 2.24047L1.87453 2.18242ZM9.90663 2.87761C7.88229 0.814187 4.60938 0.816198 2.58747 2.88364L2.58358 2.88762L2.52558 2.94558C0.497517 5.02142 0.498148 8.38942 2.52747 10.4645L2.52831 10.4653L3.25721 11.2142L3.2583 11.2153L11 19.1195L18.7417 11.2153L18.7428 11.2142L19.4717 10.4653L19.4733 10.4637C21.5122 8.38817 21.5122 5.01993 19.4733 2.94445C19.4638 2.93472 19.4546 2.92461 19.4459 2.91414L19.4089 2.86976C17.3856 0.815808 14.1219 0.818818 12.1022 2.87879L11.3671 3.67357C11.272 3.77631 11.1383 3.83452 10.9983 3.83405C10.8584 3.83357 10.725 3.77446 10.6307 3.67107L9.90663 2.87761Z" fill="#222222"/>
</svg>
