<svg width="47" height="48" viewBox="0 0 47 48" fill="none" xmlns="http://www.w3.org/2000/svg">
<path fill-rule="evenodd" clip-rule="evenodd" d="M21.4904 27.9403C20.4269 27.1774 19.2406 26.5277 18.1243 25.8475C17.4435 25.4327 16.7938 24.7393 16.0718 24.3975C13.3505 29.1909 10.5696 33.987 8.31641 39.0026C10.002 38.4003 12.0904 37.6259 13.5415 36.6217C13.8778 38.4589 14.5881 40.1881 15.0333 41.9898C16.8483 37.0691 19.7396 32.5844 21.623 27.6911" fill="white"/>
<path d="M21.4904 27.9403C20.4269 27.1774 19.2406 26.5277 18.1243 25.8475C17.4435 25.4327 16.7938 24.7393 16.0718 24.3975C13.3505 29.1909 10.5696 33.987 8.31641 39.0026C10.002 38.4003 12.0904 37.6259 13.5415 36.6217C13.8778 38.4589 14.5881 40.1881 15.0333 41.9898C16.8483 37.0691 19.7396 32.5844 21.623 27.6911" stroke="black" stroke-width="0.979167" stroke-miterlimit="1.5" stroke-linecap="round" stroke-linejoin="round"/>
<path fill-rule="evenodd" clip-rule="evenodd" d="M30.8267 25.3546C29.4966 26.2018 27.3257 27.5092 25.918 28.2296C26.6048 30.6222 30.5449 39.6914 31.6687 41.6312C32.0444 39.6234 32.4145 37.5834 32.8492 35.5865C34.8344 36.5936 36.5925 37.3393 38.7318 38.6804C38.2573 37.7054 32.2803 27.6028 30.8267 25.3546Z" fill="white" stroke="black" stroke-width="0.979167" stroke-miterlimit="1.5" stroke-linecap="round" stroke-linejoin="round"/>
<path fill-rule="evenodd" clip-rule="evenodd" d="M29.7996 9.63747C28.9571 9.59352 28.0971 9.89156 27.5201 10.5459C28.032 9.3325 26.9725 7.66618 25.9384 7.09922C24.1393 6.11271 21.1685 7.40245 20.9601 9.49929C19.3019 6.36396 14.7206 7.87843 14.9092 11.3584C14.6279 11.1829 14.3552 11.0732 14.0369 10.9657C11.1061 9.97615 9.33376 14.2963 11.2584 16.2546C8.72247 16.9713 7.74878 21.3574 10.5777 22.3712C7.57383 23.9936 9.53773 29.7112 13.0638 28.5679C12.8301 29.5593 12.7811 30.7806 13.3389 31.6803C14.2439 33.14 16.5767 33.8089 17.9873 32.6198C17.9639 35.6459 22.4968 36.089 23.7399 33.6826C25.8449 36.3632 29.8861 35.3297 30.1826 31.8201C30.8842 32.0696 31.6812 32.2853 32.423 32.0963C34.728 31.5086 35.7532 28.7361 34.5836 26.782C37.2875 26.3863 38.9275 21.6706 35.0421 19.9511C36.4696 18.7755 36.6725 16.769 35.3868 14.9564C34.7082 13.9996 33.1357 13.8052 32.1954 13.9617C32.6111 12.9102 32.6508 11.7359 31.9734 10.7813" fill="white"/>
<path d="M29.7996 9.63747C28.9571 9.59352 28.0971 9.89156 27.5201 10.5459C28.032 9.3325 26.9725 7.66618 25.9384 7.09922C24.1393 6.11271 21.1685 7.40245 20.9601 9.49929C19.3019 6.36396 14.7206 7.87843 14.9092 11.3584C14.6279 11.1829 14.3552 11.0732 14.0369 10.9657C11.1061 9.97615 9.33376 14.2963 11.2584 16.2546C8.72247 16.9713 7.74878 21.3574 10.5777 22.3712C7.57383 23.9936 9.53773 29.7112 13.0638 28.5679C12.8301 29.5593 12.7811 30.7806 13.3389 31.6803C14.2439 33.14 16.5767 33.8089 17.9873 32.6198C17.9639 35.6459 22.4968 36.089 23.7399 33.6826C25.8449 36.3632 29.8861 35.3297 30.1826 31.8201C30.8842 32.0696 31.6812 32.2853 32.423 32.0963C34.728 31.5086 35.7532 28.7361 34.5836 26.782C37.2875 26.3863 38.9275 21.6706 35.0421 19.9511C36.4696 18.7755 36.6725 16.769 35.3868 14.9564C34.7082 13.9996 33.1357 13.8052 32.1954 13.9617C32.6111 12.9102 32.6508 11.7359 31.9734 10.7813" stroke="black" stroke-width="0.979167" stroke-miterlimit="1.5" stroke-linecap="round" stroke-linejoin="round"/>
<path d="M25.4364 12.2721C21.2637 10.3276 15.5047 13.0006 14.0049 17.3361C12.2496 22.41 13.519 27.6977 18.7257 30.1453C22.5746 31.9546 27.5204 31.3531 30.5408 28.2774C35.1624 23.571 33.5904 16.1664 27.9984 13.4026" stroke="black" stroke-width="0.979167" stroke-miterlimit="1.5" stroke-linecap="round" stroke-linejoin="round"/>
<path d="M20.1055 19.4139C21.3425 18.4637 22.4609 17.4011 23.0456 16.0674" stroke="black" stroke-width="0.979167" stroke-miterlimit="1.5" stroke-linecap="round" stroke-linejoin="round"/>
<path fill-rule="evenodd" clip-rule="evenodd" d="M23.1225 16.2303C23.0315 19.2149 23.2745 22.2041 23.154 25.1852L23.1225 16.2303Z" fill="white"/>
<path d="M23.1225 16.2303C23.0315 19.2149 23.2745 22.2041 23.154 25.1852" stroke="black" stroke-width="0.979167" stroke-miterlimit="1.5" stroke-linecap="round" stroke-linejoin="round"/>
<path fill-rule="evenodd" clip-rule="evenodd" d="M19.8906 25.4357C22.116 25.1692 24.4044 25.3598 26.6112 25.0753Z" fill="white"/>
<path d="M19.8906 25.4357C22.116 25.1692 24.4044 25.3598 26.6112 25.0753" stroke="black" stroke-width="0.979167" stroke-miterlimit="1.5" stroke-linecap="round" stroke-linejoin="round"/>
</svg>
