<svg width="47" height="42" viewBox="0 0 47 42" fill="none" xmlns="http://www.w3.org/2000/svg">
<path fill-rule="evenodd" clip-rule="evenodd" d="M20.9928 0.153105C19.2103 0.205327 18.826 0.508024 18.3453 2.00623C17.9708 3.21849 17.9362 3.24331 17.3699 2.76065C13.7489 -0.473055 3.3927 4.67606 5.75366 8.52857C6.99713 10.5405 7.30538 11.497 7.46784 11.8253C2.48541 11.7972 1.10089 11.4582 0.254409 16.8337C-0.447851 21.2934 0.783514 21.2451 6.39525 22.5224C5.77613 23.1513 3.28769 25.9374 1.9486 27.0583C0.575021 28.2041 0.588155 28.5088 2.08638 30.6516C6.45039 36.9383 9.0574 38.2568 12.2597 35.7948C13.5801 34.7921 13.8463 35.0459 13.5412 37.177C13.1916 39.7856 16.1205 41.0034 24.0333 41.4625C29.0037 41.7609 28.6442 41.1291 28.6933 38.2919L31.6233 40.0849C34.6083 41.9171 35.9719 41.2238 43.5687 33.9753C44.0359 33.5345 43.0297 32.347 42.0744 32.1966C41.716 32.1401 40.8538 31.3988 40.1592 30.5631L38.8713 29.0286C39.9348 29.075 41.7034 29.1114 43.1438 29.096C43.8789 29.0907 44.4795 28.58 44.6508 27.8804C45.6144 23.704 46.0175 21.9211 46.0129 21.9508C46.1172 21.4829 45.9529 20.9726 45.6065 20.6458C45.2051 20.2799 44.5194 19.7784 43.2477 19.3058C41.223 18.5633 41.1605 18.7652 43.9096 16.6557C46.875 14.338 46.907 14.5247 43.1199 9.23687C39.8621 4.66804 36.9527 2.93868 34.7955 4.20316L33.7492 4.82535L33.6862 4.05875C33.5175 2.21615 26.2812 -0.0129908 20.9928 0.153105ZM28.3846 7.61266C27.6625 13.9459 28.6835 14.6514 33.1241 10.9317C37.7374 7.0878 37.1124 7.17098 39.374 10.0998C41.7916 13.2046 41.9461 12.8052 37.4631 15.8222C32.4031 19.2023 32.5668 20.1057 38.2722 20.3988C42.4619 20.6045 41.8698 21.4496 40.6472 26.4934C33.1093 25.7907 30.6017 25.3958 34.1052 28.7927C36.836 31.4624 38.0046 32.9781 37.5719 33.3942C37.3603 33.5729 33.0504 37.4343 33.0504 37.4343C32.6286 37.0047 31.9586 36.5965 29.8779 33.8778C26.8256 29.9466 25.5524 30.2607 24.8952 35.2118L24.4314 38.7407C18.2108 38.6086 18.3595 39.0253 18.896 33.4802C19.0929 31.4531 19.929 27.8921 15.5581 28.8382C13.5954 29.2555 10.9738 30.7495 9.74409 32.3417C9.20522 33.0437 8.92532 32.8786 7.21735 31.0963C5.32367 29.1334 5.18956 29.5966 8.33488 26.9138C9.35874 26.046 10.4059 25.0304 11.0689 24.3175C13.6609 21.457 10.6333 20.284 6.81202 19.6823L5.08041 19.4096C5.08041 19.4096 5.63117 16.1063 6.13239 14.672C6.43092 14.719 8.33692 15.0493 10.1534 15.3657C15.0401 16.1957 15.208 16.1011 13.4007 13.395C11.6896 10.8555 10.7578 9.1955 10.1715 8.25569C10.6499 7.93755 8.48555 9.44303 14.7421 5.07092C15.0147 5.47706 16.4373 7.51711 17.7724 9.72498C19.4461 12.5006 22.0086 11.966 22.2691 10.312L22.5481 8.53991C23.5731 2.22411 23.2346 2.62481 26.8928 3.29166L28.8287 3.62677L28.3846 7.61266Z" fill="black"/>
</svg>
