<svg width="57" height="59" viewBox="0 0 57 59" fill="none" xmlns="http://www.w3.org/2000/svg">
<path fill-rule="evenodd" clip-rule="evenodd" d="M24.1865 7.78033C24.2005 11.7225 22.883 18.8533 33.0184 20.5768C26.7267 21.5009 24.3223 26.4492 24.1877 32.7965C24.0334 28.0054 24.6792 22.473 14.3574 20.9567C24.264 20.1596 24.1266 11.8315 24.1865 7.78033Z" fill="white" stroke="black" stroke-width="2.01429" stroke-miterlimit="1.5" stroke-linecap="round" stroke-linejoin="round"/>
<rect x="24.0938" y="17.834" width="4.41369" height="4.41369" transform="rotate(44.5071 24.0938 17.834)" fill="#FFC061"/>
<path fill-rule="evenodd" clip-rule="evenodd" d="M34.0226 27.0118C34.0366 30.9539 31.3976 38.2734 41.533 39.9969C35.2413 40.9209 34.1584 45.6807 34.0238 52.0279C33.8695 47.2366 33.5539 41.6623 26.3945 40.0633C33.3341 39.2206 33.2171 32.3914 34.0226 27.0118Z" fill="white" stroke="black" stroke-width="2.01429" stroke-miterlimit="1.5" stroke-linecap="round" stroke-linejoin="round"/>
<rect x="34.5137" y="36.834" width="5.01247" height="5.01247" transform="rotate(44.5071 34.5137 36.834)" fill="#FFC061"/>
<path d="M13.4355 6.63385C15.0715 8.55964 16.3685 10.7935 18.0473 12.6777" stroke="black" stroke-width="2.01429" stroke-miterlimit="1.5" stroke-linecap="round" stroke-linejoin="round"/>
<path d="M29.3145 14.1029C30.5391 13.076 31.697 11.9067 32.6892 10.6446" stroke="black" stroke-width="2.01429" stroke-miterlimit="1.5" stroke-linecap="round" stroke-linejoin="round"/>
<path d="M18.4683 27.3712C16.8222 28.9236 15.2935 30.652 13.8047 32.3611" stroke="black" stroke-width="2.01429" stroke-miterlimit="1.5" stroke-linecap="round" stroke-linejoin="round"/>
<path d="M28.7031 30.9307C28.8828 31.2103 29.0996 31.4651 29.2953 31.7334" stroke="black" stroke-width="2.01429" stroke-miterlimit="1.5" stroke-linecap="round" stroke-linejoin="round"/>
<path d="M26.6641 46.877C27.0557 46.4801 27.4613 46.0976 27.847 45.6944" stroke="black" stroke-width="2.01429" stroke-miterlimit="1.5" stroke-linecap="round" stroke-linejoin="round"/>
<path d="M38.1836 33.965C39.9169 32.3689 41.4245 30.6154 42.8839 28.7618" stroke="black" stroke-width="2.01429" stroke-miterlimit="1.5" stroke-linecap="round" stroke-linejoin="round"/>
<path d="M38.6074 47.0157C40.6509 48.3094 42.073 50.9733 43.4869 52.9193" stroke="black" stroke-width="2.01429" stroke-miterlimit="1.5" stroke-linecap="round" stroke-linejoin="round"/>
</svg>
