<svg width="38" height="38" viewBox="0 0 38 38" fill="none" xmlns="http://www.w3.org/2000/svg">
<path d="M34.5122 19.536C27.3142 27.4179 15.1483 30.5252 6.52022 22.977C4.80942 21.4802 3.33701 19.682 2.17969 17.7267C4.6595 14.0831 7.29494 10.7833 11.3395 8.81195C20.1948 4.49469 30.7729 9.54049 35.0794 17.9603" stroke="black" stroke-width="2.05623" stroke-miterlimit="1.5" stroke-linecap="round" stroke-linejoin="round"/>
<path fill-rule="evenodd" clip-rule="evenodd" d="M21.3189 13.32C20.0915 12.6919 18.7795 12.4754 17.4574 12.9755C14.4695 14.1064 13.4786 18.1981 15.6231 20.5405C18.8335 24.047 24.9307 19.9576 23.2872 15.6718" fill="black"/>
<path d="M21.3189 13.32C20.0915 12.6919 18.7795 12.4754 17.4574 12.9755C14.4695 14.1064 13.4786 18.1981 15.6231 20.5405C18.8335 24.047 24.9307 19.9576 23.2872 15.6718" stroke="black" stroke-width="2.05623" stroke-miterlimit="1.5" stroke-linecap="round" stroke-linejoin="round"/>
<path d="M2.76562 24.6205C3.52876 23.6222 4.27849 22.5887 5.11228 21.6473" stroke="black" stroke-width="2.05623" stroke-miterlimit="1.5" stroke-linecap="round" stroke-linejoin="round"/>
<path d="M6.84375 27.7646C7.50144 26.7485 8.23194 25.7847 8.95812 24.8172" stroke="black" stroke-width="2.05623" stroke-miterlimit="1.5" stroke-linecap="round" stroke-linejoin="round"/>
<path d="M11.9961 30.1335C12.6878 29.0287 13.4267 27.9373 14.2043 26.8905" stroke="black" stroke-width="2.05623" stroke-miterlimit="1.5" stroke-linecap="round" stroke-linejoin="round"/>
<path d="M18.6133 31.1651C19.4279 29.7874 20.1685 28.3513 21.1248 27.0623" stroke="black" stroke-width="2.05623" stroke-miterlimit="1.5" stroke-linecap="round" stroke-linejoin="round"/>
<path d="M25.3164 30.0178C26.2594 28.1373 27.1836 26.1675 28.3688 24.4209" stroke="black" stroke-width="2.05623" stroke-miterlimit="1.5" stroke-linecap="round" stroke-linejoin="round"/>
<path d="M34.5452 19.5349C33.6328 21.4223 32.7394 23.3189 31.8281 25.2067" stroke="black" stroke-width="2.05623" stroke-miterlimit="1.5" stroke-linecap="round" stroke-linejoin="round"/>
</svg>
