<svg width="202" height="40" viewBox="0 0 202 40" fill="none" xmlns="http://www.w3.org/2000/svg">
<g clip-path="url(#clip0_1_193)">
<mask id="mask0_1_193" style="mask-type:luminance" maskUnits="userSpaceOnUse" x="0" y="0" width="202" height="40">
<path d="M202 0H0V40H202V0Z" fill="white"/>
</mask>
<g mask="url(#mask0_1_193)">
<path d="M30.7 1C35.7 5.9 37.7 12.5 38 19.4C40 16.3 42.6 14.9 46.1 15C49.1 15 51.7 16.6 53.6 19.4C53.6 19.1 53.2 16.8 51.9 14.4C51.3 13.2 50.5 12.1 49.7 11C49.1 10.2 48.3 9.4 47.6 8.7C46.4 7.5 45.1 6.5 43.8 5.6C42.5 4.6 40.9 3.8 39.3 3.1C37.9 2.5 35.8 1.9 34.4 1.6C33.2 1.4 31 1 30.7 1Z" fill="#F26F21"/>
<path d="M51.7 23.9C51.7 27.3 49 30 45.6 30C42.2 30 39.5 27.3 39.5 23.9C39.5 20.5 42.2 17.8 45.6 17.8C49 17.8 51.7 20.5 51.7 23.9Z" fill="#F26F21"/>
<path d="M54.5 38.9C54 38.9 53.5 38.6 53.3 38.2C52.8 37.3 52.6 36.9 52.3 36.5L52.2 36.4C50.9 34.5 48.3 32.6 44.7 32.6C42.8 32.6 41 33.2 39.5 34.5C38.3 35.5 37.6 36.4 37.6 36.4C37.2 37 36.4 37.2 35.7 36.8C35.1 36.4 34.9 35.6 35.3 34.9C35.4 34.7 38.6 29.9 44.7 29.9C49.3 29.9 52.7 32.5 54.4 34.9L54.5 35C54.8 35.4 55.1 35.9 55.7 37C56 37.7 55.8 38.5 55.1 38.8C55 38.8 54.8 38.9 54.5 38.9Z" fill="#F26F21"/>
<path d="M26.4 1C21.4 5.9 19.4 12.5 19.1 19.4C17.1 16.3 14.5 14.9 11 15C8 15 5.5 16.6 3.5 19.4C3.5 19.1 3.9 16.8 5.2 14.4C5.8 13.2 6.6 12.1 7.4 11C8 10.2 8.7 9.5 9.5 8.7C10.7 7.5 12 6.5 13.3 5.6C14.6 4.6 16.2 3.8 17.8 3.1C19.2 2.5 21.3 1.9 22.7 1.6C23.9 1.4 26 1 26.4 1Z" fill="#3CAFE3"/>
<path d="M17.4 23.9C17.4 27.3 14.7 30 11.3 30C7.9 30 5.2 27.3 5.2 23.9C5.2 20.5 7.9 17.8 11.3 17.8C14.6 17.8 17.4 20.5 17.4 23.9Z" fill="#3CAFE3"/>
<path d="M1.6 38.9C1.4 38.9 1.2 38.8 0.999999 38.7C0.299999 38.4 0.0999994 37.5 0.399999 36.9C0.899999 35.9 1.3 35.4 1.6 34.9L1.7 34.8C3.4 32.4 6.8 29.8 11.4 29.8C17.5 29.8 20.7 34.6 20.8 34.8C21.2 35.4 21 36.3 20.4 36.7C19.8 37.1 18.9 36.9 18.5 36.3C18.5 36.3 17.8 35.3 16.6 34.4C15 33.2 13.3 32.5 11.4 32.5C7.8 32.5 5.2 34.5 3.9 36.3L3.8 36.4C3.5 36.8 3.2 37.2 2.8 38.1C2.6 38.6 2.1 38.9 1.6 38.9Z" fill="#3CAFE3"/>
<path d="M36.6 19.5C35 17.4 33.9 16.5 32 15.6C30.2 14.8 27.4 14.7 25.5 15.3C23.3 16 21.7 17.5 20.5 19.4C20.4 18.4 21.1 13.6 21.9 11.2C22.4 9.69998 22.9 8.29998 23.7 6.99998C24.1 6.29998 24.5 5.49998 25 4.79998C25.5 3.99998 26.1 3.19998 26.8 2.49998C27.1 1.99998 27.4 1.69998 28 1.19998C28.4 0.899976 28.6 0.899976 29 1.19998C29.9 1.99998 30.9 2.99998 31.8 4.29998C32.7 5.59998 33.5 6.89998 34.2 8.39998C34.8 9.69998 35.3 11 35.6 12.3C36.5 15.3 36.6 18.8 36.6 19.5Z" fill="#FFCA05"/>
<path d="M34.5 23.9C34.5 27.3 31.8 30 28.4 30C25 30 22.3 27.3 22.3 23.9C22.3 20.5 25 17.8 28.4 17.8C31.8 17.8 34.5 20.5 34.5 23.9Z" fill="#FFCA05"/>
<path d="M19.7 36.9C19.4 36.9 19.2 36.8 18.9 36.7C18.3 36.3 18.1 35.4 18.5 34.8C18.6 34.6 21.9 29.8 28 29.8C34 29.8 37.4 34.6 37.6 34.8C38 35.4 37.9 36.3 37.3 36.7C36.7 37.1 35.8 37 35.4 36.4C35.4 36.4 32.6 32.6 28 32.6C26.1 32.6 24.3 33.2 22.7 34.5C21.4 35.5 20.8 36.5 20.8 36.5C20.5 36.7 20.1 36.9 19.7 36.9Z" fill="#FFCA05"/>
<path d="M63.5 0.0999756H63.2V39.7H63.5V0.0999756Z" fill="white"/>
<path d="M93.3 15.8H91L87.2 9.19998H87.1C87.1 9.49998 87.1 9.69998 87.1 9.99998C87.1 10.3 87.1 10.6 87.1 10.8C87.1 11.1 87.1 11.4 87.1 11.6V15.7H85.5V7.09998H87.8L91.6 13.6C91.6 13.3 91.6 13.1 91.6 12.8C91.6 12.5 91.6 12.3 91.6 12C91.6 11.7 91.6 11.5 91.6 11.2V7.09998H93.3V15.8Z" fill="white"/>
<path d="M107.5 13.4C107.5 13.9 107.4 14.4 107.1 14.7C106.9 15.1 106.5 15.4 106 15.6C105.5 15.8 104.9 15.9 104.3 15.9C104 15.9 103.7 15.9 103.4 15.8C103.1 15.8 102.8 15.7 102.6 15.6C102.3 15.5 102.1 15.4 101.8 15.3V13.6C102.2 13.8 102.6 13.9 103.1 14.1C103.5 14.2 104 14.3 104.4 14.3C104.7 14.3 104.9 14.3 105.1 14.2C105.3 14.1 105.4 14 105.5 13.9C105.6 13.8 105.6 13.6 105.6 13.4C105.6 13.2 105.5 13 105.4 12.8C105.3 12.6 105.1 12.5 104.8 12.4C104.5 12.3 104.3 12.1 103.9 12C103.7 11.9 103.5 11.8 103.2 11.7C103 11.6 102.7 11.4 102.5 11.2C102.3 11 102.1 10.8 102 10.5C101.9 10.2 101.8 9.89998 101.8 9.49998C101.8 8.99998 101.9 8.49998 102.2 8.19998C102.4 7.79998 102.8 7.49998 103.2 7.39998C103.6 7.19998 104.2 7.09998 104.8 7.09998C105.3 7.09998 105.7 7.19998 106.1 7.29998C106.5 7.39998 106.9 7.59998 107.4 7.79998L106.9 8.99998C106.5 8.79998 106.1 8.69998 105.8 8.59998C105.5 8.49998 105.2 8.49998 104.8 8.49998C104.6 8.49998 104.4 8.49998 104.2 8.59998C104 8.69998 103.9 8.79998 103.8 8.89998C103.7 8.99998 103.7 9.19998 103.7 9.39998C103.7 9.59998 103.8 9.79998 103.9 9.89998C104 9.99998 104.2 10.2 104.4 10.3C104.6 10.4 104.9 10.6 105.3 10.8C105.7 11 106.1 11.2 106.4 11.5C106.7 11.7 107 12 107.1 12.3C107.4 12.6 107.5 12.9 107.5 13.4Z" fill="white"/>
<path d="M123.1 7.09998V12.7C123.1 13.3 123 13.8 122.7 14.3C122.4 14.8 122 15.2 121.5 15.4C121 15.7 120.3 15.8 119.5 15.8C118.3 15.8 117.5 15.5 116.9 14.9C116.3 14.3 116 13.5 116 12.6V7.09998H117.8V12.4C117.8 13.1 117.9 13.6 118.2 13.9C118.5 14.2 118.9 14.3 119.5 14.3C119.9 14.3 120.2 14.2 120.5 14.1C120.8 14 120.9 13.7 121.1 13.5C121.2 13.2 121.3 12.8 121.3 12.4V7.09998H123.1Z" fill="white"/>
<path d="M134.7 7.09998C135.5 7.09998 136.1 7.19998 136.7 7.39998C137.2 7.59998 137.6 7.89998 137.8 8.29998C138 8.69998 138.2 9.19998 138.2 9.79998C138.2 10.2 138.1 10.5 138 10.8C137.9 11.1 137.7 11.3 137.4 11.6C137.2 11.8 136.9 12 136.6 12.1L139.2 15.9H137.2L135.1 12.6H134.1V15.9H132.3V7.09998H134.7ZM134.6 8.59998H134V11H134.6C135.2 11 135.6 10.9 135.9 10.7C136.2 10.5 136.3 10.2 136.3 9.79998C136.3 9.39998 136.2 9.09998 135.9 8.89998C135.6 8.69998 135.1 8.59998 134.6 8.59998Z" fill="white"/>
<path d="M152.4 15.8L151.8 13.7H148.6L148 15.8H146L149.1 7.09998H151.4L154.5 15.8H152.4ZM151.4 12.2L150.8 10.2C150.8 10.1 150.7 9.89998 150.6 9.69998C150.5 9.49998 150.5 9.29998 150.4 9.09998C150.3 8.89998 150.3 8.69998 150.2 8.49998C150.2 8.69998 150.1 8.89998 150 9.09998C149.9 9.29998 149.9 9.59998 149.8 9.79998C149.7 9.99998 149.7 10.2 149.7 10.3L149.1 12.3L151.4 12.2Z" fill="white"/>
<path d="M170.2 15.8H167.9L164 9.19998C164 9.49998 164 9.69998 164 9.99998C164 10.3 164 10.6 164 10.8C164 11.1 164 11.4 164 11.6V15.7H162.4V7.09998H164.7L168.5 13.6C168.5 13.3 168.5 13.1 168.5 12.8C168.5 12.5 168.5 12.3 168.5 12C168.5 11.7 168.5 11.5 168.5 11.2V7.09998H170.2V15.8Z" fill="white"/>
<path d="M183 8.49996C182.6 8.49996 182.3 8.59996 182.1 8.69996C181.8 8.79996 181.6 8.99996 181.4 9.29996C181.2 9.59996 181.1 9.89996 181 10.2C180.9 10.6 180.9 11 180.9 11.4C180.9 12 181 12.5 181.1 13C181.3 13.4 181.5 13.8 181.8 14C182.1 14.2 182.5 14.3 183 14.3C183.4 14.3 183.7 14.3 184.1 14.2C184.5 14.1 184.8 14 185.3 13.9V15.4C184.9 15.6 184.5 15.7 184.2 15.7C183.8 15.8 183.4 15.8 182.9 15.8C182 15.8 181.3 15.6 180.7 15.2C180.1 14.8 179.7 14.3 179.4 13.6C179.1 12.9 179 12.2 179 11.3C179 10.6 179.1 9.99996 179.3 9.49996C179.5 8.99996 179.7 8.49996 180.1 8.09996C180.4 7.69996 180.9 7.39996 181.4 7.19996C181.9 6.99996 182.5 6.89996 183.1 6.89996C183.5 6.89996 184 6.99996 184.4 7.09996C184.8 7.19996 185.2 7.39996 185.6 7.49996L185 8.99996C184.7 8.79996 184.3 8.69996 184 8.59996C183.6 8.59996 183.3 8.49996 183 8.49996Z" fill="white"/>
<path d="M199 15.8H194V7.09998H199V8.59998H195.8V10.5H198.7V12H195.8V14.2H199V15.8Z" fill="white"/>
<path d="M77.2 7H73.7V8H77.2V7Z" fill="#4E4E4E"/>
<path d="M77.2 14.9H73.7V15.9H77.2V14.9Z" fill="#4E4E4E"/>
<path d="M76.4 7.09998H74.6V15.8H76.4V7.09998Z" fill="white"/>
</g>
<path d="M78.7 37.4C77.5 37.4 76.5 37.3 75.6 37.1C74.7 36.9 73.9 36.6 73.2 36.3V32.7H73.5C74.3 33.3 75.1 33.8 76 34.2C76.9 34.5 77.8 34.7 78.7 34.7C78.9 34.7 79.2 34.7 79.6 34.6C80 34.6 80.2 34.5 80.5 34.4C80.8 34.3 81 34.1 81.2 33.9C81.4 33.7 81.5 33.4 81.5 33.1C81.5 32.7 81.4 32.4 81.1 32.2C80.8 32 80.4 31.8 80 31.7C79.5 31.6 78.9 31.4 78.4 31.3C77.8 31.2 77.3 31 76.8 30.9C75.6 30.5 74.8 29.9 74.3 29.2C73.8 28.5 73.5 27.6 73.5 26.6C73.5 25.2 74.1 24 75.3 23.2C76.5 22.3 78 21.9 79.8 21.9C80.7 21.9 81.6 22 82.5 22.2C83.4 22.4 84.2 22.6 84.9 22.9V26.4H84.6C84 25.9 83.4 25.5 82.5 25.2C81.7 24.9 80.9 24.7 80 24.7C79.7 24.7 79.4 24.7 79.1 24.8C78.8 24.8 78.6 24.9 78.3 25.1C78.1 25.2 77.9 25.4 77.7 25.6C77.5 25.8 77.4 26.1 77.4 26.3C77.4 26.7 77.5 27 77.8 27.2C78.1 27.4 78.6 27.6 79.4 27.8C79.9 27.9 80.4 28 80.9 28.1C81.4 28.2 81.9 28.4 82.4 28.5C83.4 28.9 84.2 29.4 84.7 30C85.2 30.6 85.5 31.5 85.5 32.5C85.5 34 84.9 35.2 83.7 36.1C82.3 37 80.7 37.4 78.7 37.4ZM86.4 37.1L91.5 22H95.6L100.7 37.1H96.8L95.9 34H91.1L90.2 37.1H86.4ZM95 31.3L93.5 26.3L92 31.3H95ZM118.5 37.1H114.7V27.1L111.9 33.6H109.3L106.5 27.1V37.1H103V22H107.4L110.8 29.5L114.1 22H118.5C118.5 22 118.5 37.1 118.5 37.1ZM120.8 37.1L125.9 22H130L135.1 37.1H131.2L130.3 34H125.5L124.6 37.1H120.8ZM129.5 31.3L128 26.3L126.5 31.3H129.5ZM151 29.6C151 31 150.7 32.3 150.1 33.4C149.5 34.5 148.7 35.4 147.8 36C147 36.5 146.2 36.8 145.2 37C144.3 37.1 143.3 37.2 142.3 37.2H137.6V22H142.3C143.4 22 144.4 22.1 145.3 22.2C146.2 22.3 147.1 22.7 147.9 23.2C148.9 23.8 149.7 24.7 150.3 25.8C150.7 26.9 151 28.1 151 29.6ZM147.1 29.6C147.1 28.6 146.9 27.8 146.6 27C146.3 26.3 145.7 25.7 145 25.3C144.5 25 143.9 24.9 143.4 24.8C142.8 24.8 142.2 24.8 141.4 24.8H141.3V34.3H141.4C142.3 34.3 143 34.3 143.6 34.3C144.2 34.3 144.7 34.1 145.3 33.8C145.9 33.4 146.4 32.9 146.7 32.2C147 31.4 147.1 30.6 147.1 29.6ZM166.9 37.1H163.1V30.4H157.9V37.1H154.1V22H157.9V27.5H163.1V22H166.9V37.1ZM169.2 37.1L174.3 22H178.4L183.5 37.1H179.6L178.7 34H173.9L173 37.1H169.2ZM177.9 31.3L176.4 26.3L174.9 31.3H177.9ZM198.8 37.1H195.1L189.3 26.6V37.1H185.8V22H190.5L195.3 30.7V22H198.8V37.1Z" fill="white"/>
</g>
<defs>
<clipPath id="clip0_1_193">
<rect width="202" height="40" fill="white"/>
</clipPath>
</defs>
</svg>
