<svg width="20" height="21" viewBox="0 0 20 21" fill="none" xmlns="http://www.w3.org/2000/svg">
<path fill-rule="evenodd" clip-rule="evenodd" d="M10.5 1.33405C5.77616 1.33405 2.00001 5.11019 2.00001 9.83405C2.00001 11.1421 2.37494 12.4659 2.94723 13.6104C3.07072 13.8574 2.97061 14.1578 2.72362 14.2813C2.47663 14.4048 2.17629 14.3046 2.0528 14.0577C1.42509 12.8022 1.00001 11.3259 1.00001 9.83405C1.00001 4.5579 5.22387 0.334045 10.5 0.334045C15.7762 0.334045 20 4.5579 20 9.83405C20 15.1102 15.7762 19.334 10.5 19.334C9.00812 19.334 7.53183 18.909 6.27641 18.2813C6.02942 18.1578 5.92931 17.8574 6.0528 17.6104C6.17629 17.3634 6.47663 17.2633 6.72362 17.3868C7.8682 17.9591 9.19191 18.334 10.5 18.334C15.2239 18.334 19 14.5579 19 9.83405C19 5.11019 15.2239 1.33405 10.5 1.33405Z" fill="#222222"/>
<path fill-rule="evenodd" clip-rule="evenodd" d="M2.65813 13.3597C2.9201 13.447 3.06168 13.7302 2.97436 13.9922L1.29058 19.0435L6.3419 17.3597C6.60387 17.2724 6.88703 17.414 6.97436 17.6759C7.06168 17.9379 6.9201 18.2211 6.65813 18.3084L0.658127 20.3084C0.47846 20.3683 0.280376 20.3215 0.14646 20.1876C0.0125441 20.0537 -0.0342172 19.8556 0.0256719 19.6759L2.02567 13.6759C2.113 13.414 2.39616 13.2724 2.65813 13.3597Z" fill="#222222"/>
</svg>
